<svg viewBox="0 0 16 16" xmlns="http://www.w3.org/2000/svg"><path d="m8.03799913 12.8287723v3.064197c5.19364567 0 9.23747537-5.0174358 7.53852177-10.45978995-.7424377-2.37833709-2.6322627-4.26816207-5.0105998-5.01059973-5.44235409-1.69895356-10.45987986 2.34496607-10.45987986 7.53861167h3.07121295c.00044975 0 .00080954-.00080953.00080954-.00080953.00044975-3.25938592 3.22610483-5.77930247 6.65288548-4.53584979 1.26953789.46071792 2.28218179 1.47318198 2.74316959 2.74262985 1.2436391 3.4247714-1.2724889 6.64915488-4.52910361 6.65378008v-3.05429763s-.00026989-.0001799-.00053966-.0001799h-3.06176843c-.00026977 0-.00053966.00044974-.00053966.00044974v3.06185819zm-3.05637135 2.3533314h-2.35252178l-.00053969-.0005397v-2.3527917h2.35360113v2.3527917s-.00026977.0005397-.00053966.0005397zm-2.35144239-2.3533314h-1.97212816c-.00080954 0-.00143918-.0005396-.00143918-.0005396v-1.9712287s.00062964-.0014392.00143918-.0014392h1.97068898c.00080954 0 .00143918.0006297.00143918.0006297z" fill="#0080ff"/></svg>